<svg width="134" height="75" viewBox="0 0 134 75" fill="none" xmlns="http://www.w3.org/2000/svg">
<path d="M20.8414 74.2C16.4414 74.2 12.7081 73.2667 9.64141 71.4C6.64141 69.4667 4.37474 67 2.84141 64C1.37474 60.9333 0.641406 57.7333 0.641406 54.4C0.641406 50.2 1.80807 46.5333 4.14141 43.4C6.47474 40.2 9.44141 37.7667 13.0414 36.1C16.7081 34.3667 20.4414 33.5 24.2414 33.5C27.4414 33.5 30.3081 34.1667 32.8414 35.5C35.4414 36.8333 36.7414 38.6667 36.7414 41C36.7414 42.2667 36.2414 43.3667 35.2414 44.3C34.3081 45.1667 32.9747 45.6 31.2414 45.6C29.6414 45.6 28.3747 45.2 27.4414 44.4C26.5081 43.5333 25.7414 42.2333 25.1414 40.5C24.5414 38.6333 23.9414 37.3667 23.3414 36.7C22.8081 35.9667 21.8081 35.6 20.3414 35.6C17.4747 35.6 15.1747 37.0333 13.4414 39.9C11.7747 42.7 10.9414 46.4333 10.9414 51.1C10.9414 56.6333 12.1747 61.0667 14.6414 64.4C17.1081 67.6667 21.0414 69.3 26.4414 69.3C28.2414 69.3 29.7747 69.1 31.0414 68.7C32.3747 68.3 34.0414 67.6333 36.0414 66.7H36.1414C36.3414 66.7 36.5081 66.8 36.6414 67C36.8414 67.2 36.8747 67.3667 36.7414 67.5C34.2747 69.7667 31.8081 71.4667 29.3414 72.6C26.8747 73.6667 24.0414 74.2 20.8414 74.2ZM67.8219 73.6C67.5552 73.7333 67.2219 73.8 66.8219 73.8C65.4885 73.8 64.2552 72.9667 63.1219 71.3C61.9885 69.5667 61.4219 67.3 61.4219 64.5V47.5C61.4219 43.2333 61.0552 40.1333 60.3219 38.2C59.6552 36.2667 58.4885 35.3 56.8219 35.3C53.2885 35.3 51.2885 38.0333 50.8219 43.5C50.6219 45.5 50.0219 46.9333 49.0219 47.8C48.0885 48.6667 46.7552 49.1 45.0219 49.1C43.3552 49.1 42.1219 48.7667 41.3219 48.1C40.5885 47.3667 40.2219 46.4333 40.2219 45.3C40.2219 43.3 41.3885 41.4 43.7219 39.6C46.0552 37.7333 48.8552 36.2333 52.1219 35.1C55.4552 33.9667 58.3885 33.4 60.9219 33.4C63.8552 33.4 66.2219 34.3333 68.0219 36.2C69.8885 38 70.8219 40.7667 70.8219 44.5V62.2C70.8219 64.1333 71.1552 65.6333 71.8219 66.7C72.5552 67.7667 73.5552 68.3 74.8219 68.3C75.7552 68.3 76.7219 68.0667 77.7219 67.6H77.8219C78.0885 67.6 78.2552 67.7667 78.3219 68.1C78.4552 68.3667 78.3885 68.5667 78.1219 68.7L67.8219 73.6ZM48.6219 73.7C45.7552 73.7 43.5885 73.0667 42.1219 71.8C40.6552 70.5333 39.9219 68.7667 39.9219 66.5C39.9219 64.7 40.3552 63.2667 41.2219 62.2C42.0885 61.0667 43.1552 60.2 44.4219 59.6C45.7552 58.9333 47.5885 58.2 49.9219 57.4L52.4219 56.5L62.4219 52.8L62.8219 54.3L57.1219 56.9C56.9219 56.9667 56.2552 57.2333 55.1219 57.7C53.9885 58.1 52.9885 58.8 52.1219 59.8C51.3219 60.8 50.9219 61.9667 50.9219 63.3C50.9219 64.9 51.4219 66.1667 52.4219 67.1C53.4885 67.9667 54.6885 68.4 56.0219 68.4C57.0885 68.4 58.1885 68.0333 59.3219 67.3L64.3219 63.9L64.4219 65.5L57.4219 70.5C55.8885 71.6333 54.4552 72.4667 53.1219 73C51.7885 73.4667 50.2885 73.7 48.6219 73.7ZM77.7117 73C77.4451 73 77.3117 72.8 77.3117 72.4C77.3117 72 77.4451 71.8 77.7117 71.8C79.4451 71.8 80.7117 71.6333 81.5117 71.3C82.3784 70.9667 82.9451 70.3333 83.2117 69.4C83.5451 68.4 83.7117 66.9 83.7117 64.9V42.4C83.7117 40.3333 83.2784 39 82.4117 38.4C81.5451 37.7333 79.8451 37.4 77.3117 37.4C77.1117 37.4 77.0117 37.1 77.0117 36.5C77.0117 35.9 77.1117 35.6 77.3117 35.6C79.6451 35.6 81.2451 35.3 82.1117 34.7C82.9784 34.0333 83.4451 32.8667 83.5117 31.2C83.7117 23.2667 84.3117 17.1 85.3117 12.7C86.3117 8.3 87.8451 5.16666 89.9117 3.3C92.0451 1.36667 94.9784 0.399999 98.7117 0.399999C104.645 0.399999 107.612 2.36666 107.612 6.29999C107.612 7.83333 107.112 9.03333 106.112 9.9C105.178 10.7667 104.012 11.2 102.612 11.2C100.612 11.2 99.3117 10.7 98.7117 9.7C98.1784 8.7 97.8451 7.23333 97.7117 5.3C97.6451 4.16666 97.5451 3.36667 97.4117 2.9C97.2784 2.43333 96.9117 2.2 96.3117 2.2C95.3117 2.2 94.5784 2.76666 94.1117 3.9C93.7117 5.03333 93.4451 7.4 93.3117 11C93.1784 14.6 93.1117 20.6333 93.1117 29.1V64.9C93.1117 66.9667 93.3117 68.4667 93.7117 69.4C94.1117 70.3333 94.9117 70.9667 96.1117 71.3C97.3784 71.6333 99.3451 71.8 102.012 71.8C102.278 71.8 102.412 72 102.412 72.4C102.412 72.8 102.278 73 102.012 73L95.1117 72.9C93.5784 72.8333 91.3117 72.8 88.3117 72.8L82.2117 72.9C81.1451 72.9667 79.6451 73 77.7117 73ZM113.612 42.4C113.612 40.5333 113.212 39.3333 112.412 38.8C111.678 38.2 110.112 37.8333 107.712 37.7C105.178 37.6333 99.2784 37.6 90.0117 37.6V35.3C98.3451 35.3 104.078 35.2667 107.212 35.2C109.745 35.1333 111.412 34.8667 112.212 34.4C113.012 33.8667 113.445 32.8 113.512 31.2L115.812 35.9L113.612 42.4ZM103.312 73C103.045 73 102.912 72.8 102.912 72.4C102.912 72 103.045 71.8 103.312 71.8C105.045 71.8 106.312 71.6333 107.112 71.3C107.978 70.9667 108.545 70.3333 108.812 69.4C109.145 68.4 109.312 66.9 109.312 64.9V42.4C109.312 40.3333 108.878 39 108.012 38.4C107.145 37.7333 105.445 37.4 102.912 37.4C102.712 37.4 102.612 37.1 102.612 36.5C102.612 35.9 102.712 35.6 102.912 35.6C105.245 35.6 106.845 35.3 107.712 34.7C108.578 34.0333 109.045 32.8667 109.112 31.2C109.445 23.2 110.078 17.0333 111.012 12.7C112.012 8.3 113.545 5.16666 115.612 3.3C117.678 1.36667 120.578 0.399999 124.312 0.399999C127.245 0.399999 129.445 0.899998 130.912 1.9C132.445 2.9 133.212 4.33333 133.212 6.2C133.212 7.8 132.745 9.03333 131.812 9.9C130.945 10.7667 129.878 11.2 128.612 11.2C127.212 11.2 126.245 10.7333 125.712 9.8C125.178 8.86666 124.812 7.6 124.612 6C124.412 4.6 124.145 3.6 123.812 3C123.545 2.33333 122.912 2 121.912 2C120.912 2 120.178 2.6 119.712 3.8C119.312 5 119.045 7.43333 118.912 11.1C118.778 14.7 118.712 20.7 118.712 29.1V64.9C118.712 66.9667 118.912 68.4667 119.312 69.4C119.712 70.3333 120.512 70.9667 121.712 71.3C122.978 71.6333 124.945 71.8 127.612 71.8C127.878 71.8 128.012 72 128.012 72.4C128.012 72.8 127.878 73 127.612 73L120.712 72.9C119.178 72.8333 116.912 72.8 113.912 72.8L107.812 72.9C106.745 72.9667 105.245 73 103.312 73ZM129.412 39.5C124.812 38.4333 119.812 37.9 114.412 37.9V35.3C118.478 35.3 123.578 34.9667 129.712 34.3C129.912 34.3 130.078 34.5667 130.212 35.1C130.345 35.5667 130.412 36.1 130.412 36.7C130.412 37.3667 130.278 38.0333 130.012 38.7C129.812 39.3 129.612 39.5667 129.412 39.5Z" fill="black"/>
</svg>
