<svg width="32" height="31" viewBox="0 0 32 31" fill="none" xmlns="http://www.w3.org/2000/svg">
<path d="M24.1313 0.5C26.4646 0.5 28.2646 1.3 29.5313 2.9C30.8646 4.5 31.5313 6.93333 31.5313 10.2C31.5313 13.7333 30.6646 17.1333 28.9313 20.4C27.2646 23.6 24.7979 26.8 21.5313 30C21.4646 30.0667 21.3646 30.1 21.2313 30.1C21.0313 30.1 20.8646 30.0333 20.7313 29.9C20.6646 29.7 20.6646 29.5 20.7313 29.3C22.5313 27.1 23.7646 24.9333 24.4312 22.8C25.1646 20.6 25.5313 18.1667 25.5313 15.5C25.5313 13.6333 25.3646 12.2667 25.0313 11.4C24.6979 10.4667 24.1646 9.7 23.4313 9.1L27.1313 8.4C27.1979 9.53333 26.8646 10.4 26.1313 11C25.3979 11.6 24.3979 11.9 23.1313 11.9C21.3979 11.9 20.0313 11.4 19.0313 10.4C18.0979 9.4 17.6313 8.03333 17.6313 6.3C17.6313 4.5 18.1979 3.1 19.3313 2.1C20.5313 1.03333 22.1313 0.5 24.1313 0.5ZM6.83125 0.5C9.16458 0.5 10.9646 1.3 12.2313 2.9C13.5646 4.5 14.2313 6.93333 14.2313 10.2C14.2313 13.7333 13.3646 17.1333 11.6313 20.4C9.96458 23.6 7.49792 26.8 4.23125 30C4.16458 30.0667 4.06458 30.1 3.93125 30.1C3.73125 30.1 3.56458 30.0333 3.43125 29.9C3.36458 29.7 3.36458 29.5 3.43125 29.3C5.23125 27.1 6.46458 24.9333 7.13125 22.8C7.86458 20.6 8.23125 18.1667 8.23125 15.5C8.23125 13.6333 8.06458 12.2667 7.73125 11.4C7.39792 10.4667 6.86458 9.7 6.13125 9.1L9.83125 8.4C9.89792 9.53333 9.56458 10.4 8.83125 11C8.09792 11.6 7.09792 11.9 5.83125 11.9C4.09792 11.9 2.73125 11.4 1.73125 10.4C0.797917 9.4 0.33125 8.03333 0.33125 6.3C0.33125 4.5 0.897917 3.1 2.03125 2.1C3.23125 1.03333 4.83125 0.5 6.83125 0.5Z" fill="white"/>
</svg>
