<svg width="32" height="30" viewBox="0 0 32 30" fill="none" xmlns="http://www.w3.org/2000/svg">
<path d="M7.83125 29.9C5.49792 29.9 3.66458 29.1 2.33125 27.5C1.06458 25.9 0.43125 23.4667 0.43125 20.2C0.43125 16.6667 1.26458 13.3 2.93125 10.1C4.66458 6.83333 7.16458 3.6 10.4313 0.399996C10.4979 0.33333 10.5979 0.299998 10.7313 0.299998C10.9313 0.299998 11.0646 0.399998 11.1313 0.6C11.2646 0.733331 11.2979 0.899998 11.2312 1.1C9.43125 3.3 8.16458 5.5 7.43125 7.7C6.76458 9.83333 6.43125 12.2333 6.43125 14.9C6.43125 16.7667 6.59792 18.1667 6.93125 19.1C7.26458 19.9667 7.79792 20.7 8.53125 21.3L4.83125 22C4.76458 20.8667 5.09792 20 5.83125 19.4C6.56458 18.8 7.56458 18.5 8.83125 18.5C10.5646 18.5 11.8979 19 12.8313 20C13.8313 21 14.3313 22.3667 14.3313 24.1C14.3313 25.9 13.7313 27.3333 12.5313 28.4C11.3979 29.4 9.83125 29.9 7.83125 29.9ZM25.1313 29.9C22.7979 29.9 20.9646 29.1 19.6313 27.5C18.3646 25.9 17.7313 23.4667 17.7313 20.2C17.7313 16.6667 18.5646 13.3 20.2313 10.1C21.9646 6.83333 24.4646 3.6 27.7313 0.399996C27.7979 0.33333 27.8979 0.299998 28.0313 0.299998C28.2313 0.299998 28.3646 0.399998 28.4313 0.6C28.5646 0.733331 28.5979 0.899998 28.5313 1.1C26.7313 3.3 25.4646 5.5 24.7313 7.7C24.0646 9.83333 23.7312 12.2333 23.7312 14.9C23.7312 16.7667 23.8979 18.1667 24.2313 19.1C24.5646 19.9667 25.0979 20.7 25.8313 21.3L22.1313 22C22.0646 20.8667 22.3979 20 23.1313 19.4C23.8646 18.8 24.8646 18.5 26.1313 18.5C27.8646 18.5 29.1979 19 30.1313 20C31.1313 21 31.6313 22.3667 31.6313 24.1C31.6313 25.9 31.0313 27.3333 29.8313 28.4C28.6979 29.4 27.1313 29.9 25.1313 29.9Z" fill="white"/>
</svg>
