<svg xmlns="http://www.w3.org/2000/svg" version="1.1" xmlns:xlink="http://www.w3.org/1999/xlink" xmlns:svgjs="http://svgjs.com/svgjs" width="32" height="32"><svg width="32" height="32" viewBox="0 0 32 32" fill="none" xmlns="http://www.w3.org/2000/svg">
<rect width="32" height="32" rx="5" fill="black"></rect>
<path d="M6.86828 22.24C5.98828 22.24 5.24161 22.0533 4.62828 21.68C4.02828 21.2933 3.57495 20.8 3.26828 20.2C2.97495 19.5867 2.82828 18.9467 2.82828 18.28C2.82828 17.44 3.06161 16.7067 3.52828 16.08C3.99495 15.44 4.58828 14.9533 5.30828 14.62C6.04161 14.2733 6.78828 14.1 7.54828 14.1C8.18828 14.1 8.76161 14.2333 9.26828 14.5C9.78828 14.7667 10.0483 15.1333 10.0483 15.6C10.0483 15.8533 9.94828 16.0733 9.74828 16.26C9.56161 16.4333 9.29495 16.52 8.94828 16.52C8.62828 16.52 8.37495 16.44 8.18828 16.28C8.00161 16.1067 7.84828 15.8467 7.72828 15.5C7.60828 15.1267 7.48828 14.8733 7.36828 14.74C7.26161 14.5933 7.06161 14.52 6.76828 14.52C6.19495 14.52 5.73495 14.8067 5.38828 15.38C5.05495 15.94 4.88828 16.6867 4.88828 17.62C4.88828 18.7267 5.13495 19.6133 5.62828 20.28C6.12161 20.9333 6.90828 21.26 7.98828 21.26C8.34828 21.26 8.65495 21.22 8.90828 21.14C9.17495 21.06 9.50828 20.9267 9.90828 20.74H9.92828C9.96828 20.74 10.0016 20.76 10.0283 20.8C10.0683 20.84 10.0749 20.8733 10.0483 20.9C9.55495 21.3533 9.06161 21.6933 8.56828 21.92C8.07495 22.1333 7.50828 22.24 6.86828 22.24ZM16.2644 22.12C16.211 22.1467 16.1444 22.16 16.0644 22.16C15.7977 22.16 15.551 21.9933 15.3244 21.66C15.0977 21.3133 14.9844 20.86 14.9844 20.3V16.9C14.9844 16.0467 14.911 15.4267 14.7644 15.04C14.631 14.6533 14.3977 14.46 14.0644 14.46C13.3577 14.46 12.9577 15.0067 12.8644 16.1C12.8244 16.5 12.7044 16.7867 12.5044 16.96C12.3177 17.1333 12.051 17.22 11.7044 17.22C11.371 17.22 11.1244 17.1533 10.9644 17.02C10.8177 16.8733 10.7444 16.6867 10.7444 16.46C10.7444 16.06 10.9777 15.68 11.4444 15.32C11.911 14.9467 12.471 14.6467 13.1244 14.42C13.791 14.1933 14.3777 14.08 14.8844 14.08C15.471 14.08 15.9444 14.2667 16.3044 14.64C16.6777 15 16.8644 15.5533 16.8644 16.3V19.84C16.8644 20.2267 16.931 20.5267 17.0644 20.74C17.211 20.9533 17.411 21.06 17.6644 21.06C17.851 21.06 18.0444 21.0133 18.2444 20.92H18.2644C18.3177 20.92 18.351 20.9533 18.3644 21.02C18.391 21.0733 18.3777 21.1133 18.3244 21.14L16.2644 22.12ZM12.4244 22.14C11.851 22.14 11.4177 22.0133 11.1244 21.76C10.831 21.5067 10.6844 21.1533 10.6844 20.7C10.6844 20.34 10.771 20.0533 10.9444 19.84C11.1177 19.6133 11.331 19.44 11.5844 19.32C11.851 19.1867 12.2177 19.04 12.6844 18.88L13.1844 18.7L15.1844 17.96L15.2644 18.26L14.1244 18.78C14.0844 18.7933 13.951 18.8467 13.7244 18.94C13.4977 19.02 13.2977 19.16 13.1244 19.36C12.9644 19.56 12.8844 19.7933 12.8844 20.06C12.8844 20.38 12.9844 20.6333 13.1844 20.82C13.3977 20.9933 13.6377 21.08 13.9044 21.08C14.1177 21.08 14.3377 21.0067 14.5644 20.86L15.5644 20.18L15.5844 20.5L14.1844 21.5C13.8777 21.7267 13.591 21.8933 13.3244 22C13.0577 22.0933 12.7577 22.14 12.4244 22.14ZM18.2423 22C18.189 22 18.1623 21.96 18.1623 21.88C18.1623 21.8 18.189 21.76 18.2423 21.76C18.589 21.76 18.8423 21.7267 19.0023 21.66C19.1757 21.5933 19.289 21.4667 19.3423 21.28C19.409 21.08 19.4423 20.78 19.4423 20.38V15.88C19.4423 15.4667 19.3557 15.2 19.1823 15.08C19.009 14.9467 18.669 14.88 18.1623 14.88C18.1223 14.88 18.1023 14.82 18.1023 14.7C18.1023 14.58 18.1223 14.52 18.1623 14.52C18.629 14.52 18.949 14.46 19.1223 14.34C19.2957 14.2067 19.389 13.9733 19.4023 13.64C19.4423 12.0533 19.5623 10.82 19.7623 9.94C19.9623 9.06 20.269 8.43333 20.6823 8.06C21.109 7.67333 21.6957 7.48 22.4423 7.48C23.629 7.48 24.2223 7.87333 24.2223 8.66C24.2223 8.96667 24.1223 9.20667 23.9223 9.38C23.7357 9.55333 23.5023 9.64 23.2223 9.64C22.8223 9.64 22.5623 9.54 22.4423 9.34C22.3357 9.14 22.269 8.84667 22.2423 8.46C22.229 8.23333 22.209 8.07333 22.1823 7.98C22.1557 7.88667 22.0823 7.84 21.9623 7.84C21.7623 7.84 21.6157 7.95333 21.5223 8.18C21.4423 8.40667 21.389 8.88 21.3623 9.6C21.3357 10.32 21.3223 11.5267 21.3223 13.22V20.38C21.3223 20.7933 21.3623 21.0933 21.4423 21.28C21.5223 21.4667 21.6823 21.5933 21.9223 21.66C22.1757 21.7267 22.569 21.76 23.1023 21.76C23.1557 21.76 23.1823 21.8 23.1823 21.88C23.1823 21.96 23.1557 22 23.1023 22L21.7223 21.98C21.4157 21.9667 20.9623 21.96 20.3623 21.96L19.1423 21.98C18.929 21.9933 18.629 22 18.2423 22ZM25.4223 15.88C25.4223 15.5067 25.3423 15.2667 25.1823 15.16C25.0357 15.04 24.7223 14.9667 24.2423 14.94C23.7357 14.9267 22.5557 14.92 20.7023 14.92V14.46C22.369 14.46 23.5157 14.4533 24.1423 14.44C24.649 14.4267 24.9823 14.3733 25.1423 14.28C25.3023 14.1733 25.389 13.96 25.4023 13.64L25.8623 14.58L25.4223 15.88ZM23.3623 22C23.309 22 23.2823 21.96 23.2823 21.88C23.2823 21.8 23.309 21.76 23.3623 21.76C23.709 21.76 23.9623 21.7267 24.1223 21.66C24.2957 21.5933 24.409 21.4667 24.4623 21.28C24.529 21.08 24.5623 20.78 24.5623 20.38V15.88C24.5623 15.4667 24.4757 15.2 24.3023 15.08C24.129 14.9467 23.789 14.88 23.2823 14.88C23.2423 14.88 23.2223 14.82 23.2223 14.7C23.2223 14.58 23.2423 14.52 23.2823 14.52C23.749 14.52 24.069 14.46 24.2423 14.34C24.4157 14.2067 24.509 13.9733 24.5223 13.64C24.589 12.04 24.7157 10.8067 24.9023 9.94C25.1023 9.06 25.409 8.43333 25.8223 8.06C26.2357 7.67333 26.8157 7.48 27.5623 7.48C28.149 7.48 28.589 7.58 28.8823 7.78C29.189 7.98 29.3423 8.26667 29.3423 8.64C29.3423 8.96 29.249 9.20667 29.0623 9.38C28.889 9.55333 28.6757 9.64 28.4223 9.64C28.1423 9.64 27.949 9.54667 27.8423 9.36C27.7357 9.17333 27.6623 8.92 27.6223 8.6C27.5823 8.32 27.529 8.12 27.4623 8C27.409 7.86667 27.2823 7.8 27.0823 7.8C26.8823 7.8 26.7357 7.92 26.6423 8.16C26.5623 8.4 26.509 8.88667 26.4823 9.62C26.4557 10.34 26.4423 11.54 26.4423 13.22V20.38C26.4423 20.7933 26.4823 21.0933 26.5623 21.28C26.6423 21.4667 26.8023 21.5933 27.0423 21.66C27.2957 21.7267 27.689 21.76 28.2223 21.76C28.2757 21.76 28.3023 21.8 28.3023 21.88C28.3023 21.96 28.2757 22 28.2223 22L26.8423 21.98C26.5357 21.9667 26.0823 21.96 25.4823 21.96L24.2623 21.98C24.049 21.9933 23.749 22 23.3623 22ZM28.5823 15.3C27.6623 15.0867 26.6623 14.98 25.5823 14.98V14.46C26.3957 14.46 27.4157 14.3933 28.6423 14.26C28.6823 14.26 28.7157 14.3133 28.7423 14.42C28.769 14.5133 28.7823 14.62 28.7823 14.74C28.7823 14.8733 28.7557 15.0067 28.7023 15.14C28.6623 15.26 28.6223 15.3133 28.5823 15.3Z" fill="white"></path>
</svg><style>@media (prefers-color-scheme: light) { :root { filter: none; } }
@media (prefers-color-scheme: dark) { :root { filter: invert(100%); } }
</style></svg>